<?xml version="1.0" encoding="UTF-8"?>
<!DOCTYPE svg PUBLIC "-//W3C//DTD SVG 1.1//EN" "http://www.w3.org/Graphics/SVG/1.1/DTD/svg11.dtd">
<svg xmlns="http://www.w3.org/2000/svg" version="1.1" width="500px" height="500px" style="shape-rendering:geometricPrecision; text-rendering:geometricPrecision; image-rendering:optimizeQuality; fill-rule:evenodd; clip-rule:evenodd" xmlns:xlink="http://www.w3.org/1999/xlink">
<g><path style="opacity:1" fill="#fefefe" d="M -0.5,-0.5 C 166.167,-0.5 332.833,-0.5 499.5,-0.5C 499.5,166.167 499.5,332.833 499.5,499.5C 332.833,499.5 166.167,499.5 -0.5,499.5C -0.5,332.833 -0.5,166.167 -0.5,-0.5 Z"/></g>
<g><path style="opacity:1" fill="#3e0078" d="M 230.5,49.5 C 316.38,46.6892 380.88,82.0226 424,155.5C 456.647,222 454.98,287.666 419,352.5C 378.391,415.068 320.557,447.401 245.5,449.5C 170.495,446.102 113.329,412.769 74,349.5C 42.858,291.871 39.1914,232.537 63,171.5C 96.4517,100.229 152.285,59.5623 230.5,49.5 Z"/></g>
<g><path style="opacity:1" fill="#9f81bc" d="M 114.5,186.5 C 114.5,186.833 114.5,187.167 114.5,187.5C 104.167,187.5 93.8333,187.5 83.5,187.5C 83.5,232.167 83.5,276.833 83.5,321.5C 82.5013,276.67 82.1679,231.67 82.5,186.5C 93.1667,186.5 103.833,186.5 114.5,186.5 Z"/></g>
<g><path style="opacity:1" fill="#fefffe" d="M 114.5,187.5 C 114.5,222.833 114.5,258.167 114.5,293.5C 132.833,293.5 151.167,293.5 169.5,293.5C 169.5,302.833 169.5,312.167 169.5,321.5C 140.833,321.5 112.167,321.5 83.5,321.5C 83.5,276.833 83.5,232.167 83.5,187.5C 93.8333,187.5 104.167,187.5 114.5,187.5 Z"/></g>
<g><path style="opacity:1" fill="#683896" d="M 114.5,186.5 C 115.498,221.663 115.832,256.996 115.5,292.5C 133.674,292.17 151.674,292.503 169.5,293.5C 151.167,293.5 132.833,293.5 114.5,293.5C 114.5,258.167 114.5,222.833 114.5,187.5C 114.5,187.167 114.5,186.833 114.5,186.5 Z"/></g>
<g><path style="opacity:1" fill="#fdfcfd" d="M 181.5,186.5 C 202.169,186.333 222.836,186.5 243.5,187C 274.368,188.835 286.535,204.669 280,234.5C 277.229,242.27 272.063,247.77 264.5,251C 280.672,254.678 289.006,264.844 289.5,281.5C 287.484,305.351 274.484,318.517 250.5,321C 227.502,321.5 204.502,321.667 181.5,321.5C 181.5,276.5 181.5,231.5 181.5,186.5 Z"/></g>
<g><path style="opacity:1" fill="#fbfafc" d="M 369.5,297.5 C 376.686,289.815 384.019,282.315 391.5,275C 392.094,274.536 392.761,274.369 393.5,274.5C 393.17,280.868 393.504,287.202 394.5,293.5C 396.167,294.833 397.833,294.833 399.5,293.5C 400.823,283.675 400.823,274.008 399.5,264.5C 399.389,263.883 399.056,263.383 398.5,263C 389.149,262.832 379.816,262.332 370.5,261.5C 366.689,248.736 362.689,236.07 358.5,223.5C 353.357,237.928 349.024,252.595 345.5,267.5C 344.596,268.209 344.263,269.209 344.5,270.5C 354.015,270.827 363.348,270.494 372.5,269.5C 377.511,269.334 382.511,269.501 387.5,270C 381.964,275.369 376.63,280.869 371.5,286.5C 369.37,288.127 367.37,289.96 365.5,292C 363.5,292.667 361.5,292.667 359.5,292C 354.619,284.977 347.953,282.31 339.5,284C 332.014,290.985 324.681,298.152 317.5,305.5C 315.737,308.481 316.403,310.481 319.5,311.5C 327.459,304.877 335.126,297.877 342.5,290.5C 347.934,290.248 351.934,292.581 354.5,297.5C 348.491,297.334 342.491,297.501 336.5,298C 333.257,305.562 330.924,313.396 329.5,321.5C 318.147,321.832 306.814,321.499 295.5,320.5C 310.568,276.129 325.735,231.796 341,187.5C 352.667,186.167 364.333,186.167 376,187.5C 391.265,231.796 406.432,276.129 421.5,320.5C 410.186,321.499 398.853,321.832 387.5,321.5C 385.706,313.451 383.706,305.451 381.5,297.5C 377.5,297.5 373.5,297.5 369.5,297.5 Z"/></g>
<g><path style="opacity:1" fill="#400479" d="M 213.5,215.5 C 223.566,215.105 233.566,215.605 243.5,217C 248.058,218.784 250.391,222.117 250.5,227C 250.809,235.358 246.809,240.024 238.5,241C 230.173,241.5 221.84,241.666 213.5,241.5C 213.5,232.833 213.5,224.167 213.5,215.5 Z"/></g>
<g><path style="opacity:1" fill="#470e7d" d="M 399.5,264.5 C 399.5,273.833 399.5,283.167 399.5,292.5C 397.833,292.5 396.167,292.5 394.5,292.5C 394.823,286.31 394.49,280.31 393.5,274.5C 392.761,274.369 392.094,274.536 391.5,275C 384.019,282.315 376.686,289.815 369.5,297.5C 368.504,297.586 367.671,297.252 367,296.5C 363.942,300.06 360.442,300.393 356.5,297.5C 354.372,294.87 352.039,292.37 349.5,290C 346.961,289.204 344.628,289.371 342.5,290.5C 335.126,297.877 327.459,304.877 319.5,311.5C 316.403,310.481 315.737,308.481 317.5,305.5C 324.681,298.152 332.014,290.985 339.5,284C 347.953,282.31 354.619,284.977 359.5,292C 361.5,292.667 363.5,292.667 365.5,292C 367.37,289.96 369.37,288.127 371.5,286.5C 377.409,282.098 382.909,277.098 388,271.5C 388.483,270.552 388.649,269.552 388.5,268.5C 382.974,268.179 377.64,268.512 372.5,269.5C 363.105,270.138 354.105,269.471 345.5,267.5C 349.024,252.595 353.357,237.928 358.5,223.5C 362.689,236.07 366.689,248.736 370.5,261.5C 379.816,262.332 389.149,262.832 398.5,263C 399.056,263.383 399.389,263.883 399.5,264.5 Z"/></g>
<g><path style="opacity:1" fill="#b9a3ce" d="M 242.5,266.5 C 232.833,266.5 223.167,266.5 213.5,266.5C 213.5,275.5 213.5,284.5 213.5,293.5C 212.506,284.348 212.173,275.015 212.5,265.5C 222.681,265.173 232.681,265.506 242.5,266.5 Z"/></g>
<g><path style="opacity:1" fill="#400379" d="M 242.5,266.5 C 256.129,266.82 260.629,273.487 256,286.5C 252.135,290.684 247.301,292.851 241.5,293C 232.173,293.5 222.839,293.666 213.5,293.5C 213.5,284.5 213.5,275.5 213.5,266.5C 223.167,266.5 232.833,266.5 242.5,266.5 Z"/></g>
<g><path style="opacity:1" fill="#a98cc2" d="M 345.5,267.5 C 354.105,269.471 363.105,270.138 372.5,269.5C 363.348,270.494 354.015,270.827 344.5,270.5C 344.263,269.209 344.596,268.209 345.5,267.5 Z"/></g>
<g><path style="opacity:1" fill="#8057a5" d="M 399.5,264.5 C 400.823,274.008 400.823,283.675 399.5,293.5C 397.833,294.833 396.167,294.833 394.5,293.5C 393.504,287.202 393.17,280.868 393.5,274.5C 394.49,280.31 394.823,286.31 394.5,292.5C 396.167,292.5 397.833,292.5 399.5,292.5C 399.5,283.167 399.5,273.833 399.5,264.5 Z"/></g>
<g><path style="opacity:1" fill="#8056a5" d="M 372.5,269.5 C 377.64,268.512 382.974,268.179 388.5,268.5C 388.649,269.552 388.483,270.552 388,271.5C 382.909,277.098 377.409,282.098 371.5,286.5C 376.63,280.869 381.964,275.369 387.5,270C 382.511,269.501 377.511,269.334 372.5,269.5 Z"/></g>
<g><path style="opacity:1" fill="#8760a9" d="M 342.5,290.5 C 344.628,289.371 346.961,289.204 349.5,290C 352.039,292.37 354.372,294.87 356.5,297.5C 355.833,297.5 355.167,297.5 354.5,297.5C 351.934,292.581 347.934,290.248 342.5,290.5 Z"/></g>
<g><path style="opacity:1" fill="#c2add4" d="M 242.5,335.5 C 238.5,334.167 234.5,334.167 230.5,335.5C 229.957,335.44 229.624,335.107 229.5,334.5C 234.167,333.167 238.833,333.167 243.5,334.5C 243.376,335.107 243.043,335.44 242.5,335.5 Z"/></g>
<g><path style="opacity:1" fill="#c2add4" d="M 400.5,335.5 C 396.5,334.167 392.5,334.167 388.5,335.5C 387.957,335.44 387.624,335.107 387.5,334.5C 392.167,333.167 396.833,333.167 401.5,334.5C 401.376,335.107 401.043,335.44 400.5,335.5 Z"/></g>
<g><path style="opacity:1" fill="#f5f2f8" d="M 205.5,349.5 C 208.247,349.187 210.914,349.52 213.5,350.5C 210.232,351.487 206.898,351.82 203.5,351.5C 203.334,345.824 203.501,340.157 204,334.5C 204.174,339.684 204.674,344.684 205.5,349.5 Z"/></g>
<g><path style="opacity:1" fill="#ad93c6" d="M 205.5,349.5 C 204.674,344.684 204.174,339.684 204,334.5C 203.501,340.157 203.334,345.824 203.5,351.5C 202.51,345.69 202.177,339.69 202.5,333.5C 203.5,333.5 204.5,333.5 205.5,333.5C 205.5,338.833 205.5,344.167 205.5,349.5 Z"/></g>
<g><path style="opacity:1" fill="#ddd1e7" d="M 216.5,333.5 C 220.226,333.177 223.893,333.511 227.5,334.5C 224.914,335.48 222.247,335.813 219.5,335.5C 219.5,337.5 219.5,339.5 219.5,341.5C 228.833,342.167 228.833,342.833 219.5,343.5C 219.5,345.5 219.5,347.5 219.5,349.5C 222.572,349.183 225.572,349.516 228.5,350.5C 224.555,351.491 220.555,351.824 216.5,351.5C 216.5,345.5 216.5,339.5 216.5,333.5 Z"/></g>
<g><path style="opacity:1" fill="#fefffe" d="M 230.5,335.5 C 234.5,334.167 238.5,334.167 242.5,335.5C 240.833,335.5 239.167,335.5 237.5,335.5C 236.833,356.833 236.167,356.833 235.5,335.5C 233.833,335.5 232.167,335.5 230.5,335.5 Z"/></g>
<g><path style="opacity:1" fill="#eee8f3" d="M 261.5,333.5 C 264.518,333.335 267.518,333.502 270.5,334C 273.95,336.158 274.283,338.658 271.5,341.5C 275.452,344.757 275.452,347.924 271.5,351C 268.183,351.498 264.85,351.665 261.5,351.5C 261.5,345.5 261.5,339.5 261.5,333.5 Z"/></g>
<g><path style="opacity:1" fill="#efe9f3" d="M 278.5,333.5 C 282.226,333.177 285.893,333.511 289.5,334.5C 286.572,335.484 283.572,335.817 280.5,335.5C 280.5,337.5 280.5,339.5 280.5,341.5C 291.167,342.167 291.167,342.833 280.5,343.5C 280.5,345.5 280.5,347.5 280.5,349.5C 283.572,349.183 286.572,349.516 289.5,350.5C 285.893,351.489 282.226,351.823 278.5,351.5C 278.5,345.5 278.5,339.5 278.5,333.5 Z"/></g>
<g><path style="opacity:1" fill="#f0ecf5" d="M 310.5,333.5 C 312.017,333.511 313.184,334.177 314,335.5C 316.333,339.167 318.667,342.833 321,346.5C 321.172,342.129 321.672,337.796 322.5,333.5C 323.833,339.5 323.833,345.5 322.5,351.5C 318.856,347.56 315.69,343.226 313,338.5C 312.828,342.871 312.328,347.204 311.5,351.5C 310.504,345.537 310.171,339.537 310.5,333.5 Z"/></g>
<g><path style="opacity:1" fill="#f4f0f7" d="M 345.5,333.5 C 347.446,338.396 348.113,343.729 347.5,349.5C 350.572,349.183 353.572,349.516 356.5,350.5C 352.893,351.489 349.226,351.823 345.5,351.5C 345.5,345.5 345.5,339.5 345.5,333.5 Z"/></g>
<g><path style="opacity:1" fill="#fefffe" d="M 388.5,335.5 C 392.5,334.167 396.5,334.167 400.5,335.5C 398.833,335.5 397.167,335.5 395.5,335.5C 394.833,356.833 394.167,356.833 393.5,335.5C 391.833,335.5 390.167,335.5 388.5,335.5 Z"/></g>
<g><path style="opacity:1" fill="#eae3f0" d="M 248.5,333.5 C 251.482,333.104 254.149,333.771 256.5,335.5C 253.943,335.782 251.277,335.949 248.5,336C 247.14,337.938 247.473,339.604 249.5,341C 256.761,341.542 258.761,344.875 255.5,351C 252.833,351.667 250.167,351.667 247.5,351C 245.74,350.035 245.406,348.868 246.5,347.5C 248.867,349.395 251.534,349.895 254.5,349C 255.86,347.062 255.527,345.396 253.5,344C 247.671,343.849 245.171,341.016 246,335.5C 246.995,334.934 247.828,334.267 248.5,333.5 Z"/></g>
<g><path style="opacity:1" fill="#4a137f" d="M 263.5,335.5 C 265.527,335.338 267.527,335.505 269.5,336C 270.833,337.667 270.833,339.333 269.5,341C 267.527,341.495 265.527,341.662 263.5,341.5C 263.5,339.5 263.5,337.5 263.5,335.5 Z"/></g>
<g><path style="opacity:1" fill="#e8e1ef" d="M 297.5,333.5 C 298.822,333.33 299.989,333.663 301,334.5C 302.735,339.871 304.568,345.204 306.5,350.5C 306.167,350.833 305.833,351.167 305.5,351.5C 304.05,350.345 303.05,348.845 302.5,347C 300.167,346.333 297.833,346.333 295.5,347C 294.833,348.333 294.167,349.667 293.5,351C 292.668,351.688 292.002,351.521 291.5,350.5C 293.507,344.81 295.507,339.143 297.5,333.5 Z"/></g>
<g><path style="opacity:1" fill="#48107e" d="M 298.5,336.5 C 300.267,338.792 301.267,341.458 301.5,344.5C 299.833,344.5 298.167,344.5 296.5,344.5C 296.963,341.779 297.629,339.112 298.5,336.5 Z"/></g>
<g><path style="opacity:1" fill="#efe9f3" d="M 357.5,333.5 C 358.496,333.414 359.329,333.748 360,334.5C 361.001,337.173 362.501,339.507 364.5,341.5C 366.025,338.437 368.025,335.77 370.5,333.5C 370.833,333.833 371.167,334.167 371.5,334.5C 367.24,339.356 364.906,345.023 364.5,351.5C 363.682,348.893 363.182,346.226 363,343.5C 360.888,340.273 359.055,336.94 357.5,333.5 Z"/></g>
<g><path style="opacity:1" fill="#41057a" d="M 263.5,343.5 C 266.167,343.5 268.833,343.5 271.5,343.5C 271.5,345.5 271.5,347.5 271.5,349.5C 268.833,349.5 266.167,349.5 263.5,349.5C 263.5,347.5 263.5,345.5 263.5,343.5 Z"/></g>
<g><path style="opacity:1" fill="#e9e2f0" d="M 332.5,333.5 C 333.833,333.5 335.167,333.5 336.5,333.5C 338.198,339.427 340.198,345.26 342.5,351C 341.552,351.483 340.552,351.649 339.5,351.5C 339.843,347.866 338.177,346.199 334.5,346.5C 333.167,346.833 331.833,347.167 330.5,347.5C 330.023,348.931 329.357,350.264 328.5,351.5C 328.167,350.833 327.833,350.167 327.5,349.5C 329.573,344.281 331.24,338.948 332.5,333.5 Z"/></g>
<g><path style="opacity:1" fill="#552287" d="M 333.5,336.5 C 335.555,338.234 336.888,340.567 337.5,343.5C 335.5,344.833 333.5,344.833 331.5,343.5C 332.577,341.271 333.244,338.937 333.5,336.5 Z"/></g>
<g><path style="opacity:1" fill="#eae3f0" d="M 376.5,333.5 C 378.527,333.338 380.527,333.505 382.5,334C 384.158,334.725 384.658,335.892 384,337.5C 380.854,334.568 378.354,334.902 376.5,338.5C 376.833,339.167 377.167,339.833 377.5,340.5C 380.167,341.123 382.667,342.123 385,343.5C 386.141,351.008 382.974,353.508 375.5,351C 372.808,348.042 373.141,347.375 376.5,349C 378.5,349.667 380.5,349.667 382.5,349C 383.747,347.506 383.747,346.006 382.5,344.5C 379.257,343.985 376.424,342.652 374,340.5C 373.333,339.167 373.333,337.833 374,336.5C 375.045,335.627 375.878,334.627 376.5,333.5 Z"/></g>
</svg>
